<?xml version="1.0" encoding="utf-8"?>
<!-- Generated by IcoMoon.io -->
<!DOCTYPE svg PUBLIC "-//W3C//DTD SVG 1.1//EN" "http://www.w3.org/Graphics/SVG/1.1/DTD/svg11.dtd">
<svg version="1.1" xmlns="http://www.w3.org/2000/svg" xmlns:xlink="http://www.w3.org/1999/xlink" width="320" height="32" viewBox="0 0 320 32">
<svg id="icon-google-plus2" width="32" height="32" viewBox="0 0 32 32" x="0" y="0">
<path fill="#ef443d" d="M0.025 27.177c-0.008-0.079-0.014-0.158-0.018-0.238 0.004 0.080 0.011 0.159 0.018 0.238zM7.372 17.661c2.875 0.086 4.804-2.897 4.308-6.662s-3.231-6.787-6.106-6.873c-2.876-0.085-4.804 2.796-4.308 6.562 0.496 3.765 3.23 6.887 6.106 6.973zM32 8v-2.666c0-2.934-2.399-5.334-5.333-5.334h-21.333c-2.884 0-5.25 2.32-5.33 5.185 1.824-1.606 4.354-2.947 6.965-2.947 2.791 0 11.164 0 11.164 0l-2.498 2.113h-3.54c2.348 0.9 3.599 3.629 3.599 6.429 0 2.351-1.307 4.374-3.153 5.812-1.801 1.403-2.143 1.991-2.143 3.184 0 1.018 1.93 2.75 2.938 3.462 2.949 2.079 3.904 4.010 3.904 7.233 0 0.513-0.064 1.026-0.19 1.53h9.617c2.934 0 5.333-2.398 5.333-5.334v-16.666h-6v6h-2v-6h-6v-2h6v-6h2v6h6zM5.809 23.936c0.675 0 1.294-0.018 1.936-0.018-0.848-0.823-1.52-1.831-1.52-3.074 0-0.738 0.236-1.448 0.567-2.079-0.337 0.024-0.681 0.031-1.035 0.031-2.324 0-4.297-0.752-5.756-1.995v2.101l0 6.304c1.67-0.793 3.653-1.269 5.809-1.269zM0.107 27.727c-0.035-0.171-0.061-0.344-0.079-0.52 0.018 0.176 0.045 0.349 0.079 0.52zM14.233 29.776c-0.471-1.838-2.139-2.749-4.465-4.361-0.846-0.273-1.778-0.434-2.778-0.444-2.801-0.030-5.41 1.092-6.882 2.762 0.498 2.428 2.657 4.267 5.226 4.267h8.951c0.057-0.348 0.084-0.707 0.084-1.076 0-0.392-0.048-0.775-0.137-1.148z"></path>
</svg>
<svg id="icon-facebook2" width="32" height="32" viewBox="0 0 32 32" x="48" y="0">
<path fill="#3c5ea8" d="M26.667 0h-21.334c-2.945 0-5.333 2.388-5.333 5.334v21.332c0 2.946 2.387 5.334 5.333 5.334h10.667v-14h-4v-4h4v-3c0-2.761 2.239-5 5-5h5v4h-5c-0.552 0-1 0.448-1 1v3h5.5l-1 4h-4.5v14h6.667c2.945 0 5.333-2.388 5.333-5.334v-21.332c0-2.946-2.387-5.334-5.333-5.334z"></path>
</svg>
<svg id="icon-twitter2" width="32" height="32" viewBox="0 0 32 32" x="96" y="0">
<path fill="#02bceb" d="M26.667 0h-21.333c-2.934 0-5.334 2.4-5.334 5.334v21.332c0 2.936 2.4 5.334 5.334 5.334h21.333c2.934 0 5.333-2.398 5.333-5.334v-21.332c0-2.934-2.399-5.334-5.333-5.334zM23.952 11.921c0.008 0.176 0.012 0.353 0.012 0.531 0 5.422-4.127 11.675-11.675 11.675-2.317 0-4.474-0.679-6.29-1.844 0.321 0.038 0.648 0.058 0.979 0.058 1.922 0 3.692-0.656 5.096-1.757-1.796-0.033-3.311-1.219-3.833-2.849 0.251 0.048 0.508 0.074 0.772 0.074 0.374 0 0.737-0.050 1.081-0.144-1.877-0.377-3.291-2.035-3.291-4.023 0-0.017 0-0.034 0-0.052 0.553 0.307 1.186 0.492 1.858 0.513-1.101-0.736-1.825-1.992-1.825-3.415 0-0.752 0.202-1.457 0.556-2.063 2.024 2.482 5.047 4.116 8.457 4.287-0.070-0.3-0.106-0.614-0.106-0.935 0-2.266 1.837-4.103 4.103-4.103 1.18 0 2.247 0.498 2.995 1.296 0.935-0.184 1.813-0.525 2.606-0.996-0.306 0.958-0.957 1.762-1.804 2.27 0.83-0.099 1.621-0.32 2.357-0.646-0.55 0.823-1.245 1.545-2.047 2.124z"></path>
</svg>
<svg id="icon-feed3" width="32" height="32" viewBox="0 0 32 32" x="144" y="0">
<path fill="#f37e0d" d="M26.667 0h-21.333c-2.934 0-5.334 2.4-5.334 5.334v21.332c0 2.935 2.4 5.334 5.334 5.334h21.333c2.934 0 5.333-2.398 5.333-5.334v-21.332c0-2.934-2.399-5.334-5.333-5.334zM8.717 25.977c-1.499 0-2.717-1.209-2.717-2.707 0-1.49 1.218-2.713 2.717-2.713 1.505 0 2.721 1.223 2.721 2.713-0 1.498-1.216 2.707-2.721 2.707zM15.546 26c0-2.557-0.994-4.963-2.796-6.764-1.804-1.805-4.199-2.801-6.747-2.801v-3.912c7.427 0 13.473 6.045 13.473 13.477l-3.93 0zM22.488 26c0-9.096-7.396-16.498-16.48-16.498v-3.914c11.25 0 20.405 9.16 20.405 20.412l-3.924-0z"></path>
</svg>
<svg id="icon-youtube3" width="32" height="32" viewBox="0 0 32 32" x="192" y="0">
<path fill="#de4943" d="M9.162 0l-2.162 4.289-2.162-4.289h-2.758l3.897 6.791 0.023-0.013v5.222h2v-5.222l0.023 0.013 3.897-6.791z"></path>
<path fill="#de4943" d="M15 4c0.542 0 1 0.458 1 1v4c0 0.542-0.458 1-1 1s-1-0.458-1-1v-4c0-0.542 0.458-1 1-1zM15 2c-1.65 0-3 1.35-3 3v4c0 1.65 1.35 3 3 3s3-1.35 3-3v-4c0-1.65-1.35-3-3-3v0z"></path>
<path fill="#de4943" d="M24 2v7.874c-0.873 0.728-2 1.167-2-1.426v-6.448h-2v6.854h0.003c0.031 1.653 0.379 4.63 3.997 2.21v0.936h2v-10h-2z"></path>
<path fill="#de4943" d="M27 22c-0.551 0-1 0.449-1 1v1h2v-1c0-0.551-0.449-1-1-1z"></path>
<path fill="#de4943" d="M18 23v5.25c0.677 0.677 2 0.75 2-0.25s0-3.688 0-4.688-1-1.313-2-0.313z"></path>
<path fill="#de4943" d="M31.836 18.173c-0.087-1.152-0.501-2.092-1.243-2.82s-1.69-1.125-2.846-1.19c-2.181-0.109-7.17-0.163-11.554-0.163s-9.728 0.054-11.909 0.163c-1.156 0.065-2.104 0.462-2.846 1.19s-1.156 1.668-1.243 2.82c-0.131 2.347-0.196 3.198-0.196 4.372s0.065 2.934 0.196 5.282c0.087 1.152 0.502 2.092 1.243 2.82s1.69 1.125 2.846 1.19c2.181 0.109 7.525 0.163 11.909 0.163s9.373-0.054 11.554-0.163c1.156-0.065 2.104-0.462 2.846-1.19s1.156-1.668 1.243-2.82c0.109-1.956 0.164-3.717 0.164-5.282s-0.055-2.416-0.164-4.372zM6 30h-2v-10h-2v-2h6v2h-2v10zM14 30h-2v-0.936c-3.802 2.134-3.966 0.069-3.997-1.585h-0.003v-5.479h2v5.51c0 1.208 1.127 1.091 2 0.364v-5.874h2v8zM22 27.971c0 2.090-2.141 2.7-4 1.075v0.954h-2v-12h2v3.25c2-2 4-1.25 4 0.75s0 3.787 0 5.971zM30 24v1h-4v2c0 0.551 0.449 1 1 1s1-0.449 1-1v-1h2v1c0 1.654-1.346 3-3 3s-3-1.346-3-3v-4c0-1.654 1.346-3 3-3s3 1.346 3 3v1z"></path>
</svg>
<svg id="icon-vimeo2" width="32" height="32" viewBox="0 0 32 32" x="240" y="0">
<path fill="#04ae7f" d="M26.666 0h-21.332c-2.934 0-5.334 2.401-5.334 5.334v21.332c0 2.936 2.4 5.334 5.334 5.334h21.332c2.934 0 5.334-2.398 5.334-5.334v-21.332c0-2.934-2.4-5.334-5.334-5.334zM25.402 13.691c-1.061 5.978-6.991 11.041-8.774 12.197s-3.411-0.463-4.001-1.687c-0.675-1.397-2.7-8.967-3.23-9.594-0.53-0.626-2.121 0.627-2.121 0.627l-0.772-1.012c0 0 3.231-3.858 5.689-4.34 2.606-0.511 2.603 4.002 3.229 6.508 0.606 2.424 1.014 3.811 1.543 3.811 0.53 0 1.543-1.352 2.652-3.424 1.111-2.074-0.048-3.907-2.218-2.603 0.868-5.208 9.064-6.46 8.004-0.483z"></path>
</svg>
</svg>
